<?xml version="1.0" encoding="UTF-8"?>
<svg id="Layer_1" data-name="Layer 1" xmlns="http://www.w3.org/2000/svg" version="1.1" viewBox="110 440 860 125">
  <defs>
    <style>
      .cls-1 {
        fill: #312a60;
        stroke-width: 0px;
      }
    </style>
  </defs>
  <path class="cls-1" d="M159.4,449.6c9.6,5.1,16.9,12.2,22.1,21.4,5.1,9.2,7.7,19.6,7.7,31.4s-2.6,22.1-7.8,31.2c-5.2,9.2-12.6,16.3-22.1,21.5-9.6,5.2-20.6,7.8-33.2,7.8h-47.9v-121h47.9c12.7,0,23.8,2.5,33.4,7.6M146.6,525.2c5.6-5.4,8.4-13,8.4-22.8s-2.8-17.7-8.4-23.1c-5.6-5.4-13.3-8.2-23.2-8.2h-11.7v62.1h11.7c9.8,0,17.6-2.7,23.2-8.1"/>
  <path class="cls-1" d="M251.7,470.6c5.4-3.2,11.2-4.8,17.3-4.8v35.9h-9.4c-7.3,0-12.8,1.4-16.3,4.3-3.5,2.9-5.3,7.8-5.3,14.9v42.1h-33.7v-96.3h33.7v17c3.8-5.5,8.4-9.8,13.7-13"/>
  <path class="cls-1" d="M283,559.5c-3.6-3.3-5.4-7.4-5.4-12.4s1.8-9.2,5.4-12.5c3.6-3.3,8.4-5,14.3-5s10.6,1.7,14.2,5c3.6,3.3,5.4,7.5,5.4,12.5s-1.8,9-5.4,12.4c-3.6,3.3-8.3,5-14.2,5s-10.7-1.6-14.3-4.9"/>
  <path class="cls-1" d="M456,502.3c-3.4,6-8.5,10.8-15.3,14.4-6.8,3.6-15.1,5.4-25,5.4h-16.7v40.9h-33.6v-121h50.3c9.7,0,18,1.7,24.8,5.2,6.8,3.4,11.9,8.2,15.4,14.2,3.4,6.1,5.1,13,5.1,20.9s-1.7,14-5.1,20M426.8,482.3c0-8.8-4.8-13.2-14.2-13.2h-13.4v26.3h13.4c9.5,0,14.2-4.3,14.2-13"/>
  <polygon class="cls-1" points="583 442 583 563 549.4 563 549.4 514.4 508.3 514.4 508.3 563 474.7 563 474.7 442 508.3 442 508.3 487.5 549.4 487.5 549.4 442 583 442"/>
  <polygon class="cls-1" points="712.3 442 669.7 524.5 669.7 563 635.9 563 635.9 524.5 593.3 442 631.8 442 653.1 488.7 674.3 442 712.3 442"/>
  <path class="cls-1" d="M733.6,554.2c-9-6.7-13.9-16.3-14.6-28.8h35.9c.3,4.2,1.6,7.3,3.8,9.3,2.2,1.9,5,2.9,8.4,2.9s5.6-.8,7.6-2.3c2-1.5,3-3.7,3-6.4s-1.7-6.3-5-8.2c-3.3-1.9-8.7-4.1-16.1-6.5-7.9-2.6-14.3-5.2-19.1-7.6-4.9-2.5-9.1-6.1-12.7-10.8-3.6-4.7-5.4-11-5.4-18.6s1.9-14.4,5.8-20c3.9-5.6,9.3-9.8,16.1-12.6,6.9-2.9,14.6-4.3,23.3-4.3,14.1,0,25.3,3.3,33.7,9.9,8.4,6.6,12.9,15.8,13.5,27.7h-36.6c-.1-3.7-1.2-6.4-3.3-8.2-2.1-1.8-4.8-2.7-8.2-2.7s-4.6.7-6.2,2.2c-1.6,1.5-2.4,3.6-2.4,6.4s.9,4.3,2.7,5.9c1.8,1.7,4,3.1,6.6,4.3,2.6,1.2,6.5,2.7,11.7,4.5,7.7,2.6,14,5.2,19,7.8,5,2.6,9.3,6.2,12.9,10.8,3.6,4.6,5.4,10.5,5.4,17.6s-1.8,13.7-5.4,19.4c-3.6,5.7-8.8,10.2-15.6,13.6-6.8,3.3-14.8,5-24.1,5-14.1,0-25.6-3.3-34.7-10"/>
  <path class="cls-1" d="M829,563h33.7v-82.9h-33.7v82.9ZM829,471.2h33.7v-29.2h-33.7v29.2Z"/>
  <path class="cls-1" d="M908.7,556.2c-9.5-5.3-17-12.7-22.6-22.1-5.6-9.4-8.3-20.1-8.3-32s2.8-22.6,8.3-32c5.5-9.4,13.1-16.8,22.6-22.1,9.5-5.3,19.9-7.9,31.2-7.9s21.9,2.6,31.3,7.9c9.4,5.3,16.9,12.6,22.4,22.1,5.5,9.4,8.2,20.1,8.2,32s-2.7,22.6-8.2,32c-5.5,9.4-13,16.8-22.5,22.1-9.5,5.3-19.9,8-31.2,8s-21.7-2.7-31.2-8M960.3,524.5c5-5.6,7.5-13.1,7.5-22.5s-2.5-17.2-7.5-22.7c-5-5.6-11.8-8.3-20.3-8.3s-15.5,2.8-20.4,8.3c-4.9,5.6-7.4,13.1-7.4,22.7s2.5,17,7.4,22.6c4.9,5.6,11.7,8.3,20.4,8.3s15.4-2.8,20.3-8.4"/>
</svg>